<svg width="17" height="17" viewBox="0 0 17 17" fill="none" xmlns="http://www.w3.org/2000/svg">
<path d="M8.49999 0C3.8165 0 0 3.8165 0 8.49999C0 13.1835 3.8165 17 8.49999 17C13.1835 17 17 13.1835 17 8.49999C17 3.8165 13.1835 0 8.49999 0ZM11.9 9.13749H9.13749V11.9C9.13749 12.2485 8.84849 12.5375 8.49999 12.5375C8.15149 12.5375 7.86249 12.2485 7.86249 11.9V9.13749H5.09999C4.75149 9.13749 4.46249 8.84849 4.46249 8.49999C4.46249 8.15149 4.75149 7.86249 5.09999 7.86249H7.86249V5.09999C7.86249 4.75149 8.15149 4.46249 8.49999 4.46249C8.84849 4.46249 9.13749 4.75149 9.13749 5.09999V7.86249H11.9C12.2485 7.86249 12.5375 8.15149 12.5375 8.49999C12.5375 8.84849 12.2485 9.13749 11.9 9.13749Z" fill="white"/>
</svg>
