<svg width="58" height="11" viewBox="0 0 58 11" fill="none" xmlns="http://www.w3.org/2000/svg">
<path d="M1 9.03972L3.36897 7.91614C4.87013 7.20415 6.65317 7.47421 7.87616 8.59881V8.59881C9.42482 10.0229 11.8027 10.0348 13.3656 8.62641L15.0479 7.11039C15.3222 6.86321 15.6267 6.65176 15.9541 6.48106L18.0609 5.38257C19.2943 4.73951 20.76 4.72125 22.009 5.33339L22.9498 5.7945C24.1644 6.38977 25.586 6.38977 26.8006 5.7945L29.1241 4.65576C29.5243 4.45963 29.8922 4.20349 30.215 3.89622L32.3373 1.87618C33.6335 0.642465 35.5503 0.322471 37.1769 1.06825L38.6171 1.72852C39.0926 1.94657 39.5253 2.24815 39.8944 2.61894L43.4698 6.21077C43.8173 6.55984 44.2212 6.84773 44.6646 7.06229L48.2443 8.79478C48.5803 8.95741 48.9358 9.07636 49.302 9.14873L52.3456 9.75021C53.044 9.88822 53.7655 9.85374 54.4475 9.64974L57 8.88628" stroke="#4CAF50" stroke-width="0.875" stroke-linecap="round" stroke-linejoin="round"/>
</svg>
